<?xml version="1.0" encoding="utf-8"?>
<!-- Generator: Adobe Illustrator 18.0.0, SVG Export Plug-In . SVG Version: 6.00 Build 0)  -->
<!DOCTYPE svg PUBLIC "-//W3C//DTD SVG 1.1//EN" "http://www.w3.org/Graphics/SVG/1.1/DTD/svg11.dtd">
<svg version="1.1" id="Layer_1" xmlns="http://www.w3.org/2000/svg" xmlns:xlink="http://www.w3.org/1999/xlink" x="0px" y="0px"
	 viewBox="0 0 79.5 78.3" enable-background="new 0 0 79.5 78.3" xml:space="preserve">
<g>
	<path fill="#4E4F50" d="M2.4,40.3c0,20.8,16.8,37.6,37.6,37.6c20.8,0,37.6-16.8,37.6-37.6c0-20.8-16.8-37.6-37.6-37.6
		C19.2,2.7,2.4,19.5,2.4,40.3z M69,40.3c0,16-13,29-29,29c-16,0-29-13-29-29s13-29,29-29C56,11.3,69,24.3,69,40.3z"/>
	<path fill="#4E4F50" d="M38.6,18.1v22c0,0.6,0.5,1.2,1.2,1.2c0.6,0,1.2-0.5,1.2-1.2v-22c0-0.6-0.5-1.2-1.2-1.2
		C39.1,17,38.6,17.5,38.6,18.1z"/>
	<path fill="#4E4F50" d="M19.3,48.7c-0.6,0.2-1,0.5-1,0.7c0,0.1,0.6,0,1.2-0.2l20.3-8.5c0.6-0.2,1-0.5,1-0.7c0-0.1-0.6,0-1.2,0.2
		L19.3,48.7z"/>
	<path fill="#4E4F50" d="M40.3,38.6c-0.9,0-1.7,0.8-1.7,1.7c0,0.9,0.8,1.7,1.7,1.7h14.4c0.9,0,1.7-0.8,1.7-1.7
		c0-0.9-0.8-1.7-1.7-1.7H40.3z"/>
	<circle fill="#4E4F50" cx="40.1" cy="40.1" r="2.9"/>
</g>
</svg>
