<?xml version="1.0" encoding="utf-8"?>
<!-- Generator: Adobe Illustrator 18.0.0, SVG Export Plug-In . SVG Version: 6.00 Build 0)  -->
<!DOCTYPE svg PUBLIC "-//W3C//DTD SVG 1.1//EN" "http://www.w3.org/Graphics/SVG/1.1/DTD/svg11.dtd">
<svg version="1.1" id="Layer_1" xmlns="http://www.w3.org/2000/svg" xmlns:xlink="http://www.w3.org/1999/xlink" x="0px" y="0px"
	 viewBox="0 0 82.9 76.3" enable-background="new 0 0 82.9 76.3" xml:space="preserve">
<g>
	<path fill="#4E4F50" d="M57.4,40.5c-0.2,0.2-0.4,0.3-0.6,0.5c-0.2,0.2-0.4,0.3-0.6,0.5c-0.4,0.3-0.8,0.6-1.3,0.9l-8.9,18.2
		l-1.8-10.5l2.6-4.2c-0.3,0.1-0.6,0.1-1,0.2c-0.8,0.1-1.7,0.2-2.5,0.3c-0.5,0-0.9,0.1-1.4,0.1c-1.8,0-3.6-0.2-5.3-0.6l2.7,4.3
		l-1.7,10.7L28,41.5c-0.5-0.4-0.9-0.7-1.3-1.1l-0.2,0.2c-13.2,11.4-13,31.3-13,32.1l0,0.7h56.3l0-0.7C68.9,49.6,59.7,42,57.4,40.5z"
		/>
	<path fill="#4E4F50" d="M42.1,2.6c-11.7,0-21.1,9.5-21.1,21.1c0,11.7,9.5,21.1,21.1,21.1c11.7,0,21.1-9.5,21.1-21.1
		C63.2,12.1,53.7,2.6,42.1,2.6z"/>
</g>
</svg>
