<svg id="Capa_1" enable-background="new 0 0 512 512" height="512" viewBox="0 0 512 512" width="512" xmlns="http://www.w3.org/2000/svg"><g><path d="m172 185h35.381c1.255 16.415 5.573 31.986 12.38 46.143l-30.65 17.697c-4.783 2.762-6.422 8.877-3.66 13.66 2.775 4.806 8.9 6.409 13.66 3.66l30.684-17.716c9.084 13.218 20.544 24.678 33.762 33.762l-17.717 30.684c-2.762 4.783-1.123 10.899 3.66 13.66 4.767 2.751 10.889 1.139 13.66-3.66l17.697-30.651c14.157 6.807 29.728 11.125 46.143 12.38v35.381c0 5.523 4.478 10 10 10s10-4.477 10-10v-35.381c16.415-1.255 31.986-5.573 46.143-12.38l17.697 30.651c2.775 4.806 8.9 6.409 13.66 3.66 4.783-2.761 6.422-8.877 3.66-13.66l-17.716-30.684c13.218-9.084 24.678-20.544 33.761-33.762l30.684 17.716c4.767 2.751 10.889 1.139 13.66-3.66 2.762-4.783 1.123-10.898-3.66-13.66l-30.65-17.697c6.807-14.157 11.125-29.728 12.38-46.143h35.381c5.522 0 10-4.477 10-10s-4.478-10-10-10h-35.381c-1.255-16.415-5.573-31.986-12.38-46.143l30.65-17.697c4.783-2.762 6.422-8.877 3.66-13.66s-8.876-6.422-13.66-3.66l-30.684 17.716c-9.083-13.218-20.544-24.678-33.761-33.762l17.716-30.684c2.762-4.783 1.123-10.899-3.66-13.66-4.784-2.761-10.898-1.123-13.66 3.66l-17.697 30.651c-14.157-6.807-29.728-11.125-46.143-12.38v-35.381c0-5.523-4.478-10-10-10s-10 4.477-10 10v35.381c-16.415 1.255-31.986 5.573-46.143 12.38l-17.697-30.651c-2.761-4.783-8.877-6.421-13.66-3.66s-6.422 8.877-3.66 13.66l17.716 30.684c-13.218 9.084-24.678 20.544-33.762 33.762l-30.684-17.716c-4.785-2.761-10.898-1.122-13.66 3.66-2.762 4.783-1.123 10.898 3.66 13.66l30.65 17.697c-6.807 14.157-11.125 29.728-12.38 46.143h-35.38c-5.522 0-10 4.477-10 10s4.478 10 10 10zm165-120c60.654 0 110 49.346 110 110s-49.346 110-110 110-110-49.346-110-110 49.346-110 110-110z"/><path d="m130 422c22.056 0 40-17.944 40-40s-17.944-40-40-40-40 17.944-40 40 17.944 40 40 40zm0-60c11.028 0 20 8.972 20 20s-8.972 20-20 20-20-8.972-20-20 8.972-20 20-20z"/><path d="m10 392h20.499c2.003 20.083 9.974 38.434 22.107 53.252l-14.526 14.526c-3.905 3.905-3.905 10.237 0 14.143 3.906 3.905 10.236 3.905 14.143 0l14.526-14.526c14.819 12.133 33.169 20.103 53.252 22.106v20.499c0 5.523 4.478 10 10 10s10-4.477 10-10v-20.499c20.083-2.003 38.433-9.974 53.252-22.106l14.526 14.526c3.906 3.905 10.236 3.905 14.143 0 3.905-3.905 3.905-10.237 0-14.143l-14.526-14.526c12.133-14.819 20.104-33.169 22.107-53.252h20.497c5.522 0 10-4.477 10-10s-4.478-10-10-10h-20.499c-2.003-20.083-9.974-38.434-22.107-53.252l14.526-14.526c3.905-3.905 3.905-10.237 0-14.143-3.906-3.905-10.236-3.905-14.143 0l-14.526 14.526c-14.819-12.133-33.169-20.103-53.252-22.106v-20.499c0-5.523-4.478-10-10-10s-10 4.477-10 10v20.499c-20.083 2.003-38.433 9.974-53.252 22.106l-14.526-14.526c-3.906-3.905-10.236-3.905-14.143 0-3.905 3.905-3.905 10.237 0 14.143l14.526 14.526c-12.132 14.818-20.102 33.169-22.105 53.252h-20.499c-5.522 0-10 4.477-10 10s4.478 10 10 10zm120-90c44.112 0 80 35.888 80 80s-35.888 80-80 80-80-35.888-80-80 35.888-80 80-80z"/><circle cx="379" cy="217" r="10"/><path d="m337 245c.297 0 .595-.002.892-.006 5.522-.075 9.938-4.612 9.863-10.135-.075-5.522-4.643-9.905-10.135-9.863l-.62.004c-27.57 0-50-22.43-50-50s22.43-50 50-50 50 22.43 50 50l-.004.639c-.064 5.522 4.36 10.052 9.883 10.116 5.481.057 10.051-4.361 10.115-9.883.004-.291.006-.581.006-.872 0-38.598-31.402-70-70-70s-70 31.402-70 70 31.402 70 70 70z"/></g></svg>